<svg width="20" height="18" viewBox="0 0 20 18" fill="none" xmlns="http://www.w3.org/2000/svg">
  <path d="M2.05905 0.0975597L18.7985 8.10423C18.9675 8.18511 19.1102 8.31214 19.21 8.47064C19.3099 8.62915 19.3629 8.81266 19.3629 9C19.3629 9.18734 19.3099 9.37085 19.21 9.52936C19.1102 9.68786 18.9675 9.81489 18.7985 9.89577L2.05905 17.9024C1.88738 17.9847 1.69567 18.0159 1.50676 17.9923C1.31785 17.9688 1.1397 17.8914 0.993532 17.7694C0.847363 17.6474 0.739334 17.486 0.682312 17.3044C0.62529 17.1227 0.621678 16.9285 0.671907 16.7449L2.34665 10.6052C2.36715 10.53 2.40935 10.4624 2.46798 10.411C2.52661 10.3596 2.59908 10.3266 2.67636 10.316L10.7879 9.21411C10.8217 9.20936 10.8537 9.19598 10.8809 9.17524C10.908 9.1545 10.9294 9.12712 10.9428 9.09573L10.9571 9.04568C10.9634 9.00133 10.9545 8.95615 10.9318 8.9175C10.9092 8.87885 10.8741 8.84899 10.8324 8.83276L10.7887 8.82085L2.6851 7.71971C2.60796 7.70905 2.53566 7.67596 2.47719 7.62454C2.41871 7.57313 2.37663 7.50566 2.35618 7.43052L0.671907 1.2551C0.621678 1.07147 0.62529 0.877273 0.682312 0.695637C0.739334 0.514001 0.847363 0.352582 0.993532 0.230607C1.1397 0.108632 1.31785 0.0312416 1.50676 0.00765314C1.69567 -0.0159353 1.88738 0.0152726 2.05905 0.0975597Z" fill="#A4A4AD" />
</svg>