<svg width="66" height="66" viewBox="0 0 66 66" fill="none" xmlns="http://www.w3.org/2000/svg">
<rect width="66" height="66" rx="12" fill="#E7FAFF"/>
<path d="M39.2356 40.2171L41.7362 30.7371L43.7676 31.2729L44.1249 29.9186L42.0934 29.3828L42.4507 28.0285L44.4821 28.5643L44.8393 27.21L42.8079 26.6742L43.1651 25.3199L45.1966 25.8557L45.5538 24.5015L43.5223 23.9656L43.8796 22.6113L45.911 23.1472L46.2682 21.7929L44.2368 21.257L44.594 19.9027L45.9483 20.26L46.3056 18.9057L44.9513 18.5484L45.3085 17.1942L43.9542 16.8369L43.597 18.1912L42.2427 17.834L41.8855 19.1883L43.2397 19.5455L42.8825 20.8998L40.8511 20.364L40.4939 21.7182L42.5253 22.2541L42.1681 23.6084L40.1366 23.0725L39.7794 24.4268L41.8108 24.9627L41.4536 26.317L39.4222 25.7811L39.0649 27.1354L41.0964 27.6713L40.7391 29.0255L38.7077 28.4897L38.3505 29.844L40.3819 30.3798L37.8813 39.8599L34.4956 38.9668L29.8516 56.5726L37.9773 58.716L42.6213 41.1102L39.2356 40.2171ZM36.9803 57.0044L31.5631 55.5755L35.4926 40.6783L40.9098 42.1072L36.9803 57.0044Z" fill="#11142D"/>
<path d="M21.0569 10.7751C25.374 10.1826 29.354 13.202 29.9465 17.519L31.0281 25.3996L23.2114 26.4724L21.0569 10.7751Z" fill="#AE8EFF"/>
<path d="M26.7631 34.1025L34.5798 33.0297L36.7342 48.727L28.9175 49.7998L26.7631 34.1025Z" fill="white"/>
<path d="M34.1139 31.7815L33.1617 24.8435L31.774 25.0339L30.5361 16.0145L30.5091 16.0182C30.3514 14.5554 29.1946 12.7809 27.3047 11.3099C25.5309 9.93316 23.5324 9.20017 22.0837 9.39899C21.4473 9.46143 20.8643 9.78213 20.4708 10.2862C20.0307 10.9462 19.9166 11.7711 20.1611 12.5257L22.0608 26.3671L20.6732 26.5575L21.6254 33.4955L21.2285 33.55C20.6814 33.6251 20.2987 34.1295 20.3738 34.6767L22.5777 50.7341C22.6528 51.2813 23.1572 51.664 23.7044 51.5889L36.9866 49.7659C37.5337 49.6908 37.9164 49.1864 37.8413 48.6392L35.6375 32.5818C35.5624 32.0346 35.0579 31.6519 34.5108 31.727L34.1139 31.7815ZM21.5939 11.1196C21.7656 10.9206 22.0111 10.8004 22.2735 10.7867C23.3461 10.6395 24.9827 11.2794 26.4443 12.4162C28.5697 14.0683 29.5335 16.1465 28.9754 16.9002C28.8044 17.0985 28.56 17.2188 28.2987 17.2335C27.2267 17.3806 25.5888 16.7409 24.1278 15.604C22.0023 13.9511 21.0388 11.8751 21.5939 11.1196ZM29.4363 18.3122L30.3851 25.2246L23.4484 26.1766L21.9905 15.5545C22.3866 15.9709 22.8135 16.357 23.2673 16.7096C25.0391 18.0873 27.0398 18.82 28.4891 18.6211C28.8214 18.5784 29.1428 18.4736 29.4363 18.3122ZM22.2513 27.7547L31.9645 26.4215L32.7263 31.972L23.013 33.3051L22.2513 27.7547ZM36.2633 47.4421C36.3384 47.9892 35.9557 48.4936 35.4085 48.5687L24.9015 50.0108C24.3544 50.0859 23.8499 49.7032 23.7748 49.1561L21.9519 35.8739C21.8768 35.3267 22.2594 34.8223 22.8066 34.7472L33.3136 33.3051C33.8608 33.23 34.3652 33.6127 34.4403 34.1598L36.2633 47.4421Z" fill="#11142D"/>
</svg>
