<svg width="66" height="66" viewBox="0 0 66 66" fill="none" xmlns="http://www.w3.org/2000/svg">
<rect width="66" height="66" rx="12" fill="#FFCE73"/>
<path d="M20.1714 35.3181V22.9095L31.1538 18.6306L36.1458 20.9127L25.306 25.3341V37.0297L20.1714 35.3181Z" fill="#AE8EFF"/>
<path d="M54.9184 19.1876L33.4601 11.0483C33.2915 10.9839 33.105 10.9839 32.9363 11.0483L11.478 19.1876C11.3375 19.2408 11.2166 19.3355 11.1312 19.459C11.0458 19.5826 11 19.7293 11 19.8795C11 19.8795 11 46.3676 11 46.5173C11 46.667 11.0453 46.8133 11.1302 46.9367C11.215 47.0601 11.3352 47.1548 11.475 47.2084L32.9333 55.4514C33.1032 55.5162 33.291 55.5162 33.4609 55.4514L54.9192 47.2824C55.0594 47.2292 55.1801 47.1346 55.2653 47.0111C55.3506 46.8877 55.3963 46.7413 55.3964 46.5913V19.8795C55.3964 19.7293 55.3506 19.5826 55.2653 19.459C55.1799 19.3355 55.0589 19.2408 54.9184 19.1876ZM33.1982 12.5311L52.5706 19.8795L33.1982 27.2278L27.3135 24.9954L36.5235 21.5073C36.6639 21.4541 36.7848 21.3594 36.8701 21.2358C36.9553 21.1122 37.001 20.9656 37.001 20.8155C37.001 20.6653 36.9553 20.5187 36.8701 20.3952C36.7848 20.2716 36.6639 20.1769 36.5235 20.1236L31.0035 18.0296C30.8345 17.9655 30.6479 17.9655 30.4789 18.0296L19.7113 22.1119L13.8258 19.8795L33.1982 12.5311ZM20.6192 24.0387L24.3189 25.4446V36.4963L20.6192 35.0793V24.0387ZM21.7972 22.9029L30.7416 19.5095L34.1742 20.8118L25.2268 24.2037L21.7972 22.9029ZM12.4799 20.9516L19.1393 23.4778V35.5884C19.1394 35.7382 19.1849 35.8845 19.2698 36.0079C19.3548 36.1313 19.4752 36.226 19.6151 36.2795L24.7947 38.2625C24.9068 38.3054 25.0275 38.3203 25.1466 38.3061C25.2657 38.2918 25.3796 38.2489 25.4784 38.1809C25.5772 38.1129 25.658 38.0219 25.7138 37.9157C25.7696 37.8095 25.7988 37.6914 25.7988 37.5714V26.0032L32.4583 28.5294V53.6829L13.1213 46.2554C12.7349 46.1069 12.4799 45.7358 12.4799 45.3219V20.9516ZM33.9382 53.6866V28.5286L53.9165 20.9516V46.0815L33.9382 53.6866Z" fill="#11142D"/>
<path d="M41.0733 46.5313L36.6233 48.225C36.4615 48.2864 36.3262 48.4026 36.2412 48.5534C36.1562 48.7042 36.1267 48.8801 36.158 49.0504C36.1892 49.2206 36.2792 49.3746 36.4122 49.4854C36.5452 49.5962 36.7129 49.6568 36.886 49.6568C36.9761 49.6569 37.0654 49.6403 37.1494 49.6079L41.5994 47.9142C41.6919 47.8809 41.7769 47.8296 41.8493 47.7631C41.9217 47.6966 41.9802 47.6164 42.0212 47.5271C42.0623 47.4378 42.0851 47.3412 42.0885 47.2429C42.0918 47.1447 42.0755 47.0468 42.0405 46.9549C42.0056 46.863 41.9527 46.779 41.8849 46.7078C41.8171 46.6366 41.7358 46.5796 41.6458 46.5402C41.5557 46.5007 41.4587 46.4796 41.3605 46.4781C41.2622 46.4766 41.1646 46.4947 41.0733 46.5313Z" fill="#11142D"/>
<path d="M41.0733 43.5716L36.6233 45.2653C36.4615 45.3267 36.3262 45.4429 36.2412 45.5937C36.1562 45.7445 36.1267 45.9204 36.158 46.0906C36.1892 46.2609 36.2792 46.4149 36.4122 46.5257C36.5452 46.6365 36.7129 46.6971 36.886 46.6971C36.9761 46.6971 37.0654 46.6806 37.1494 46.6482L41.5994 44.9545C41.6919 44.9212 41.7769 44.8698 41.8493 44.8034C41.9217 44.7369 41.9802 44.6567 42.0212 44.5674C42.0623 44.478 42.0851 44.3814 42.0885 44.2832C42.0918 44.185 42.0755 44.087 42.0405 43.9952C42.0056 43.9033 41.9527 43.8193 41.8849 43.7481C41.8171 43.6769 41.7358 43.6199 41.6458 43.5805C41.5557 43.541 41.4587 43.5199 41.3605 43.5184C41.2622 43.5169 41.1646 43.5349 41.0733 43.5716Z" fill="#11142D"/>
<path d="M41.0733 40.6118L36.6233 42.3056C36.4615 42.367 36.3262 42.4832 36.2412 42.634C36.1562 42.7848 36.1267 42.9606 36.158 43.1309C36.1892 43.3012 36.2792 43.4552 36.4122 43.566C36.5452 43.6768 36.7129 43.7374 36.886 43.7373C36.9761 43.7374 37.0654 43.7209 37.1494 43.6885L41.5994 41.9948C41.6919 41.9615 41.7769 41.9101 41.8493 41.8437C41.9217 41.7772 41.9802 41.697 42.0212 41.6076C42.0623 41.5183 42.0851 41.4217 42.0885 41.3235C42.0918 41.2252 42.0755 41.1273 42.0405 41.0354C42.0056 40.9436 41.9527 40.8596 41.8849 40.7884C41.8171 40.7172 41.7358 40.6602 41.6458 40.6208C41.5557 40.5813 41.4587 40.5602 41.3605 40.5587C41.2622 40.5572 41.1646 40.5752 41.0733 40.6118Z" fill="#11142D"/>
</svg>
