<svg width="66" height="66" viewBox="0 0 66 66" fill="none" xmlns="http://www.w3.org/2000/svg">
<rect width="66" height="66" rx="12" fill="#ECE9FF"/>
<path d="M41.5214 17.1738H24.2348V24.4049H41.5214V17.1738Z" fill="#AE8EFF"/>
<path d="M39.2519 15.939C39.1414 15.939 39.0519 15.8495 39.0519 15.739V12C39.0519 11.4477 38.6042 11 38.0519 11H37.5824C37.0301 11 36.5824 11.4477 36.5824 12V15.739C36.5824 15.8495 36.4928 15.939 36.3824 15.939H29.3738C29.2633 15.939 29.1738 15.8495 29.1738 15.739V12C29.1738 11.4477 28.7261 11 28.1738 11H27.7043C27.152 11 26.7043 11.4477 26.7043 12V15.739C26.7043 15.8495 26.6147 15.939 26.5043 15.939H24C23.4477 15.939 23 16.3868 23 16.939V22.2098C23 22.475 23.1054 22.7294 23.2929 22.9169L23.3618 22.9858C25.5177 25.1417 26.7043 28.0063 26.7043 31.055V34.6952C26.7043 35.2475 27.152 35.6952 27.7043 35.6952H28.9738C29.0843 35.6952 29.1738 35.7847 29.1738 35.8952V42.1037C29.1738 42.656 29.6215 43.1037 30.1738 43.1037H31.4433C31.5538 43.1037 31.6433 43.1933 31.6433 43.3037V54.5C31.6433 55.0523 32.091 55.5 32.6433 55.5H33.1128C33.6651 55.5 34.1128 55.0523 34.1128 54.5V43.3037C34.1128 43.1933 34.2024 43.1037 34.3128 43.1037H35.5824C36.1346 43.1037 36.5824 42.656 36.5824 42.1037V35.8952C36.5824 35.7847 36.6719 35.6952 36.7824 35.6952H38.0519C38.6042 35.6952 39.0519 35.2475 39.0519 34.6952V31.055C39.0519 28.0063 40.2385 25.1417 42.3944 22.9858L42.4633 22.9169C42.6508 22.7294 42.7562 22.475 42.7562 22.2098V16.939C42.7562 16.3868 42.3084 15.939 41.7562 15.939H39.2519ZM34.1128 40.4342C34.1128 40.5447 34.0233 40.6342 33.9128 40.6342H31.8433C31.7329 40.6342 31.6433 40.5447 31.6433 40.4342V35.8952C31.6433 35.7847 31.7329 35.6952 31.8433 35.6952H33.9128C34.0233 35.6952 34.1128 35.7847 34.1128 35.8952V40.4342ZM40.2866 21.5366C40.2866 21.5871 40.2674 21.6358 40.2332 21.673C37.8742 24.2395 36.5824 27.5487 36.5824 31.0562V33.0257C36.5824 33.1361 36.4928 33.2257 36.3824 33.2257H29.3738C29.2633 33.2257 29.1738 33.1361 29.1738 33.0257V31.055C29.1738 27.5487 27.882 24.2383 25.5229 21.6718C25.4887 21.6346 25.4695 21.5859 25.4695 21.5354V18.6086C25.4695 18.4981 25.5591 18.4086 25.6695 18.4086H40.0866C40.1971 18.4086 40.2866 18.4981 40.2866 18.6086V21.5366Z" fill="#11142D"/>
<path fill-rule="evenodd" clip-rule="evenodd" d="M38.7519 15.739V12C38.7519 11.6134 38.4385 11.3 38.0519 11.3H37.5824C37.1958 11.3 36.8824 11.6134 36.8824 12V15.739C36.8824 16.0152 36.6585 16.239 36.3824 16.239H29.3738C29.0977 16.239 28.8738 16.0152 28.8738 15.739V12C28.8738 11.6134 28.5604 11.3 28.1738 11.3H27.7043C27.3177 11.3 27.0043 11.6134 27.0043 12V15.739C27.0043 16.0152 26.7804 16.239 26.5043 16.239H24C23.6134 16.239 23.3 16.5524 23.3 16.939V22.2098C23.3 22.3955 23.3737 22.5735 23.505 22.7048L23.5739 22.7737C25.7861 24.9858 27.0043 27.9268 27.0043 31.055V34.6952C27.0043 35.0818 27.3177 35.3952 27.7043 35.3952H28.9738C29.2499 35.3952 29.4738 35.6191 29.4738 35.8952V42.1037C29.4738 42.4903 29.7872 42.8037 30.1738 42.8037H31.4433C31.7195 42.8037 31.9433 43.0276 31.9433 43.3037V54.5C31.9433 54.8866 32.2567 55.2 32.6433 55.2H33.1128C33.4994 55.2 33.8128 54.8866 33.8128 54.5V43.3037C33.8128 43.0276 34.0367 42.8037 34.3128 42.8037H35.5824C35.969 42.8037 36.2824 42.4903 36.2824 42.1037V35.8952C36.2824 35.619 36.5062 35.3952 36.7824 35.3952H38.0519C38.4385 35.3952 38.7519 35.0818 38.7519 34.6952V31.055C38.7519 27.9268 39.9701 24.9858 42.1822 22.7737L42.2511 22.7048C42.3824 22.5735 42.4562 22.3955 42.4562 22.2098V16.939C42.4562 16.5524 42.1428 16.239 41.7562 16.239H39.2519C38.9757 16.239 38.7519 16.0152 38.7519 15.739ZM33.9128 40.9342H31.8433C31.5672 40.9342 31.3433 40.7104 31.3433 40.4342V35.8952C31.3433 35.619 31.5672 35.3952 31.8433 35.3952H33.9128C34.189 35.3952 34.4128 35.619 34.4128 35.8952V40.4342C34.4128 40.7104 34.189 40.9342 33.9128 40.9342ZM40.4541 21.876C38.146 24.387 36.8824 27.6238 36.8824 31.0562V33.0257C36.8824 33.3018 36.6585 33.5257 36.3824 33.5257H29.3738C29.0977 33.5257 28.8738 33.3018 28.8738 33.0257V31.055C28.8738 27.6237 27.6101 24.3858 25.3021 21.8748C25.2177 21.783 25.1695 21.6621 25.1695 21.5354V18.6086C25.1695 18.3324 25.3934 18.1086 25.6695 18.1086H40.0866C40.3628 18.1086 40.5866 18.3324 40.5866 18.6086V21.5366C40.5866 21.6634 40.5385 21.7842 40.4541 21.876ZM39.0519 15.739C39.0519 15.8495 39.1414 15.939 39.2519 15.939H41.7562C42.3084 15.939 42.7562 16.3868 42.7562 16.939V22.2098C42.7562 22.475 42.6508 22.7294 42.4633 22.9169L42.3944 22.9858C40.2385 25.1417 39.0519 28.0063 39.0519 31.055V34.6952C39.0519 35.2475 38.6042 35.6952 38.0519 35.6952H36.7824C36.6719 35.6952 36.5824 35.7847 36.5824 35.8952V42.1037C36.5824 42.656 36.1346 43.1037 35.5824 43.1037H34.3128C34.2024 43.1037 34.1128 43.1933 34.1128 43.3037V54.5C34.1128 55.0523 33.6651 55.5 33.1128 55.5H32.6433C32.091 55.5 31.6433 55.0523 31.6433 54.5V43.3037C31.6433 43.1933 31.5538 43.1037 31.4433 43.1037H30.1738C29.6215 43.1037 29.1738 42.656 29.1738 42.1037V35.8952C29.1738 35.7847 29.0843 35.6952 28.9738 35.6952H27.7043C27.152 35.6952 26.7043 35.2475 26.7043 34.6952V31.055C26.7043 28.0063 25.5177 25.1417 23.3618 22.9858L23.2929 22.9169C23.1054 22.7294 23 22.475 23 22.2098V16.939C23 16.3868 23.4477 15.939 24 15.939H26.5043C26.6147 15.939 26.7043 15.8495 26.7043 15.739V12C26.7043 11.4477 27.152 11 27.7043 11H28.1738C28.7261 11 29.1738 11.4477 29.1738 12V15.739C29.1738 15.8495 29.2633 15.939 29.3738 15.939H36.3824C36.4928 15.939 36.5824 15.8495 36.5824 15.739V12C36.5824 11.4477 37.0301 11 37.5824 11H38.0519C38.6042 11 39.0519 11.4477 39.0519 12V15.739ZM33.9128 40.6342C34.0233 40.6342 34.1128 40.5447 34.1128 40.4342V35.8952C34.1128 35.7847 34.0233 35.6952 33.9128 35.6952H31.8433C31.7329 35.6952 31.6433 35.7847 31.6433 35.8952V40.4342C31.6433 40.5447 31.7329 40.6342 31.8433 40.6342H33.9128ZM40.2332 21.673C40.2674 21.6358 40.2866 21.5871 40.2866 21.5366V18.6086C40.2866 18.4981 40.1971 18.4086 40.0866 18.4086H25.6695C25.5591 18.4086 25.4695 18.4981 25.4695 18.6086V21.5354C25.4695 21.5859 25.4887 21.6346 25.5229 21.6718C27.882 24.2383 29.1738 27.5487 29.1738 31.055V33.0257C29.1738 33.1361 29.2633 33.2257 29.3738 33.2257H36.3824C36.4928 33.2257 36.5824 33.1361 36.5824 33.0257V31.0562C36.5824 27.5487 37.8742 24.2395 40.2332 21.673Z" fill="white"/>
</svg>
