<svg width="63" height="113" viewBox="0 0 63 113" fill="none" xmlns="http://www.w3.org/2000/svg">
<path fill-rule="evenodd" clip-rule="evenodd" d="M0.641152 106.232C0.363071 107.012 0.77025 107.87 1.55061 108.148L14.2673 112.68C15.0477 112.958 15.9057 112.551 16.1838 111.77C16.4619 110.99 16.0547 110.132 15.2743 109.854L5.96884 106.538L12.0226 103.665C50.8988 85.2164 70.7997 41.4174 59.1245 0L56.237 0.813951C67.5153 40.8232 48.291 83.1333 10.7365 100.955L4.68267 103.827L7.99869 94.5219C8.27677 93.7416 7.86959 92.8836 7.08923 92.6055C6.30887 92.3274 5.45084 92.7346 5.17275 93.5149L0.641152 106.232Z" fill="black"/>
</svg>
