<svg width="63" height="114" viewBox="0 0 63 114" fill="none" xmlns="http://www.w3.org/2000/svg">
<path fill-rule="evenodd" clip-rule="evenodd" d="M62.3591 106.999C62.6372 107.779 62.23 108.637 61.4496 108.915L48.7329 113.447C47.9526 113.725 47.0945 113.318 46.8165 112.537C46.5384 111.757 46.9455 110.899 47.7259 110.621L57.0314 107.305L50.9776 104.432C12.1014 85.9835 -7.79942 42.1844 3.87574 0.76709L6.76321 1.58104C-4.51503 41.5903 14.7092 83.9004 52.2638 101.722L58.3176 104.595L55.0016 95.289C54.7235 94.5087 55.1307 93.6506 55.911 93.3726C56.6914 93.0945 57.5494 93.5017 57.8275 94.282L62.3591 106.999Z" fill="black"/>
</svg>
