<svg width="34" height="36" viewBox="0 0 34 36" fill="none" xmlns="http://www.w3.org/2000/svg">
<path d="M2.32453 6.94658C2.64206 6.94658 2.96149 6.83956 3.22439 6.62025L7.04278 3.43601C7.63924 2.93862 7.71954 2.05184 7.22215 1.45538C6.72476 0.858919 5.83798 0.778552 5.24152 1.27601L1.42312 4.4604C0.826663 4.95779 0.746367 5.84457 1.24376 6.44103C1.52191 6.77445 1.92171 6.94658 2.32453 6.94658Z" fill="#5E5CE6"/>
<path d="M26.1448 3.43613L29.9632 6.62037C30.2262 6.83968 30.5455 6.94669 30.8631 6.94669C31.2659 6.94669 31.6657 6.77457 31.9438 6.44107C32.4412 5.84461 32.3609 4.95783 31.7645 4.46044L27.9461 1.27613C27.3496 0.778738 26.4628 0.858965 25.9654 1.4555C25.468 2.05196 25.5483 2.93867 26.1448 3.43613Z" fill="#5E5CE6"/>
<path d="M28.3272 7.67264C25.5101 4.85557 21.8583 3.177 17.9297 2.86601V1.40625C17.9297 0.629578 17.3001 0 16.5234 0C15.7468 0 15.1172 0.629578 15.1172 1.40625V2.8781C11.2421 3.21764 7.64374 4.88925 4.86028 7.67271C1.7261 10.8068 0 14.9738 0 19.4061C0 23.8384 1.7261 28.0055 4.86021 31.1396C5.15088 31.4303 5.45055 31.7087 5.75838 31.9749L4.62762 33.8742C4.23035 34.5416 4.44923 35.4047 5.11657 35.8019C5.34213 35.9362 5.58991 36 5.8346 36C6.31399 36 6.78122 35.7547 7.04426 35.3129L8.0434 33.6345C10.5986 35.1762 13.5328 35.9998 16.5937 35.9998C19.6424 35.9998 22.5682 35.1856 25.1424 33.6319L26.1431 35.3128C26.4061 35.7547 26.8733 35.9999 27.3528 35.9999C27.5974 35.9999 27.8453 35.9361 28.0708 35.8019C28.7381 35.4046 28.957 34.5415 28.5597 33.8742L26.8019 30.9215C26.5989 30.5804 26.2612 30.341 25.8721 30.2624C25.4832 30.1839 25.0789 30.2732 24.7594 30.5087C22.3813 32.2611 19.5576 33.1873 16.5937 33.1873C8.99473 33.1873 2.8125 27.0051 2.8125 19.4061C2.8125 11.8071 8.99473 5.625 16.5937 5.625C24.1926 5.625 30.3749 11.8072 30.3749 19.4062C30.3749 21.7273 29.7874 24.0214 28.676 26.0405C28.3016 26.7209 28.5495 27.5761 29.23 27.9506C29.9103 28.325 30.7655 28.077 31.14 27.3966C32.4794 24.9631 33.1874 22.2 33.1874 19.4061C33.1874 14.9738 31.4613 10.8068 28.3272 7.67264Z" fill="#11142D"/>
<path d="M16.5234 9.07019C15.7468 9.07019 15.1172 9.69977 15.1172 10.4764V19.4061C15.1172 19.7791 15.2653 20.1367 15.5291 20.4005L19.5065 24.3779C19.7811 24.6524 20.1409 24.7897 20.5009 24.7897C20.8608 24.7897 21.2207 24.6524 21.4952 24.3779C22.0444 23.8288 22.0444 22.9383 21.4952 22.3891L17.9297 18.8236V10.4764C17.9297 9.69977 17.3001 9.07019 16.5234 9.07019Z" fill="#5E5CE6"/>
</svg>
