<svg width="53" height="38" viewBox="0 0 53 38" fill="none" xmlns="http://www.w3.org/2000/svg">
<path d="M52.452 20.9635C52.3905 19.5383 50.996 18.4002 48.2993 17.5799C46.2076 16.9544 43.552 16.575 40.681 16.5135V5.57306C40.6707 5.38849 40.6195 5.21418 40.5272 5.06038C40.2401 3.81971 38.8559 2.81487 36.4053 2.07662C34.0983 1.37938 31.0837 1 27.9154 1C24.7573 1 21.7736 1.37938 19.5075 2.07662C17.6517 2.65081 15.4267 3.71717 15.4267 5.55255C15.4267 5.66534 15.4369 5.77813 15.4574 5.89091L15.5702 10.5665C8.90544 9.29507 2.4765 13.6733 1.21532 20.3278C1.07177 21.0866 1 21.8453 1 22.6144C1 29.3817 6.50612 34.8878 13.2734 34.8878C16.0931 34.8878 18.8206 33.924 21.0046 32.1398C22.922 32.591 25.1777 32.8371 27.5668 32.8576C28.0897 35.6978 34.2418 37 39.9735 37C43.1316 37 46.1154 36.6104 48.3814 35.9029C50.2373 35.3287 52.4623 34.2521 52.4623 32.4167V21.1584C52.4623 21.0968 52.4623 21.0251 52.452 20.9635ZM38.538 11.2432C38.538 11.3765 38.0459 12.084 35.8209 12.7608C33.7394 13.3862 30.8582 13.7553 27.9257 13.7553C25.3931 13.7553 22.9117 13.4887 20.943 12.9863C20.9123 12.9761 20.8918 12.9761 20.861 12.9658C19.8869 12.1968 18.8103 11.5816 17.6517 11.151L17.5799 8.25947C18.2874 8.61834 19.0256 8.90544 19.7946 9.11051C22.0197 9.75648 24.9009 10.1051 27.9257 10.1051C31.0837 10.1051 34.1085 9.72572 36.4156 9.02848C37.1846 8.8029 37.9331 8.50555 38.6406 8.13643V10.8228C38.5278 10.9664 38.538 11.0997 38.538 11.2432ZM20.1228 4.05554C22.194 3.41982 24.9624 3.06095 27.9154 3.06095C30.8479 3.06095 33.7291 3.41982 35.8106 4.05554C38.0356 4.73227 38.5278 5.42951 38.5278 5.5628C38.5278 5.70635 38.0253 6.41384 35.8003 7.08032C33.7189 7.70578 30.8479 8.06465 27.9154 8.06465C25.0854 8.06465 22.399 7.73654 20.3586 7.14184C18.1541 6.50612 17.5389 5.80889 17.4876 5.58331C17.4876 5.5628 17.4774 5.5628 17.4774 5.5628C17.4876 5.36799 17.9593 4.71176 20.1228 4.05554ZM20.1535 30.1814C15.9803 33.9752 9.5104 33.6779 5.71661 29.5047C1.92281 25.3315 2.22017 18.8616 6.39333 15.0678C8.26972 13.3555 10.7306 12.4121 13.2734 12.4121C14.2988 12.4121 15.3139 12.5659 16.2982 12.8633C19.8562 13.9707 22.5323 16.9237 23.2911 20.5637C23.4244 21.2404 23.4962 21.9376 23.4962 22.6246C23.5064 25.5058 22.2862 28.2435 20.1535 30.1814ZM22.7579 30.407C23.5884 29.3919 24.2549 28.2538 24.7266 27.0336C25.5981 27.1054 26.5004 27.1567 27.4437 27.1669V27.3515L27.5053 30.8274C25.916 30.8069 24.3267 30.6633 22.7579 30.407ZM25.4956 21.4044C26.0903 21.4455 26.7157 21.466 27.3515 21.4762L27.413 25.106C26.6952 25.0957 25.9878 25.0649 25.311 25.0137C25.4648 24.2242 25.5469 23.4141 25.5469 22.6144C25.5469 22.2145 25.5263 21.8146 25.4956 21.4044ZM28.0179 19.4358C27.9872 19.4358 27.9462 19.4358 27.9154 19.4358C26.9311 19.4358 25.9775 19.3948 25.0957 19.3332C24.7061 17.9593 24.0909 16.6673 23.2603 15.5189C24.7983 15.7138 26.3466 15.8163 27.9052 15.8163C31.0735 15.8163 34.0983 15.4369 36.4053 14.7397C37.1743 14.5141 37.9126 14.2167 38.6201 13.8579V16.5443C34.2213 16.6673 29.6995 17.5901 28.0179 19.4358ZM29.3714 21.0661C29.3714 21.0558 29.3714 21.0456 29.3817 21.0251C29.4739 20.7482 30.2019 20.0715 32.3244 19.4768C34.3136 18.9128 36.9077 18.6052 39.6351 18.6052H39.8095C42.742 18.6052 45.6129 18.9436 47.7046 19.5793C49.8886 20.2355 50.4013 20.9123 50.4116 21.0661V21.0763C50.4013 21.2301 49.8886 21.9376 47.6124 22.6144C45.5104 23.2398 42.742 23.5782 39.8197 23.5782C36.9897 23.5782 34.3033 23.2501 32.2629 22.6656C30.0584 22.0299 29.4534 21.3224 29.3919 21.1071C29.3714 21.0661 29.3714 21.0661 29.3714 21.0661ZM47.7867 33.9547C45.7155 34.6007 42.9368 34.9596 39.9838 34.9596C37.0205 34.9596 34.2521 34.6109 32.2014 33.9855C30.0379 33.319 29.5867 32.632 29.5867 32.4782C29.5867 32.468 29.5867 32.468 29.5867 32.4577L29.5355 29.4842C30.3557 29.8841 31.2068 30.1917 32.0886 30.4173C34.2418 30.9812 36.9795 31.2991 39.7889 31.2991C42.9573 31.2991 45.9615 30.9197 48.2583 30.2224C49.0068 29.9969 49.7246 29.6995 50.4116 29.3509V32.4269H50.4218C50.4218 32.5705 49.9502 33.278 47.7867 33.9547ZM50.4321 26.4081H50.4218C50.4218 26.5107 50.3603 26.6337 50.3603 26.7465C50.3603 26.8901 49.8784 27.5873 47.6636 28.264C45.5617 28.8997 42.7625 29.2484 39.7992 29.2484C34.1188 29.2484 30.2942 27.9667 29.4944 26.9721L29.4842 26.1108L29.4432 23.7525C30.1609 24.1114 30.9094 24.3985 31.6784 24.6138C33.9034 25.2598 36.7847 25.6084 39.8095 25.6084C42.9265 25.6084 45.9 25.2393 48.1866 24.5625C48.9658 24.3472 49.7143 24.0498 50.4321 23.6807V26.4081Z" fill="#11142D" stroke="#11142D" stroke-width="0.3"/>
<path d="M9.06175 28.0554C8.52937 28.0554 8.26318 27.7892 8.26318 27.2568V23.4478C8.26318 21.3373 8.63078 19.7845 9.36596 18.7895C10.1011 17.7881 11.28 17.2875 12.9024 17.2875H13.2827C14.9115 17.2875 16.0904 17.7881 16.8192 18.7895C17.5544 19.7845 17.922 21.3373 17.922 23.4478V27.2568C17.922 27.7892 17.6558 28.0554 17.1234 28.0554C16.591 28.0554 16.3249 27.7892 16.3249 27.2568V23.4478C16.3249 22.307 16.2266 21.4038 16.0301 20.7384C15.8337 20.0729 15.5105 19.5976 15.0605 19.3124C14.6168 19.0272 14.0242 18.8846 13.2827 18.8846H12.9024C12.1609 18.8846 11.5683 19.0272 11.1247 19.3124C10.6811 19.5976 10.3578 20.0729 10.155 20.7384C9.95854 21.4038 9.86031 22.307 9.86031 23.4478V27.2568C9.86031 27.7892 9.59412 28.0554 9.06175 28.0554ZM13.0926 26.3061C12.6489 26.3061 12.4271 26.0843 12.4271 25.6407V16.603C12.4271 16.1593 12.6489 15.9375 13.0926 15.9375C13.5362 15.9375 13.7581 16.1593 13.7581 16.603V25.6407C13.7581 26.0843 13.5362 26.3061 13.0926 26.3061Z" fill="#5E5CE6" stroke="#5E5CE6" stroke-width="0.2"/>
</svg>
