<svg width="25" height="24" viewBox="0 0 25 24" fill="none" xmlns="http://www.w3.org/2000/svg">
<path d="M17.2006 5.40807L19.3186 7.52507L17.2006 5.40807ZM18.5626 3.54307L12.8356 9.27007C12.5397 9.56557 12.3378 9.94205 12.2556 10.3521L11.7266 13.0001L14.3746 12.4701C14.7846 12.3881 15.1606 12.1871 15.4566 11.8911L21.1836 6.16407C21.3557 5.99197 21.4922 5.78766 21.5853 5.56281C21.6785 5.33795 21.7264 5.09695 21.7264 4.85357C21.7264 4.61019 21.6785 4.36919 21.5853 4.14433C21.4922 3.91948 21.3557 3.71517 21.1836 3.54307C21.0115 3.37097 20.8072 3.23446 20.5823 3.14132C20.3574 3.04818 20.1164 3.00024 19.8731 3.00024C19.6297 3.00024 19.3887 3.04818 19.1638 3.14132C18.939 3.23446 18.7347 3.37097 18.5626 3.54307V3.54307Z" stroke="#5E5CE6" stroke-width="2" stroke-linecap="round" stroke-linejoin="round"/>
<path d="M19.7266 15V18C19.7266 18.5304 19.5158 19.0391 19.1408 19.4142C18.7657 19.7893 18.257 20 17.7266 20H6.72656C6.19613 20 5.68742 19.7893 5.31235 19.4142C4.93728 19.0391 4.72656 18.5304 4.72656 18V7C4.72656 6.46957 4.93728 5.96086 5.31235 5.58579C5.68742 5.21071 6.19613 5 6.72656 5H9.72656" stroke="#5E5CE6" stroke-width="2" stroke-linecap="round" stroke-linejoin="round"/>
</svg>
