<svg width="39" height="36" viewBox="0 0 39 36" fill="none" xmlns="http://www.w3.org/2000/svg">
<path d="M30.265 34.7473C30.1466 34.7473 30.0281 34.7315 29.9097 34.6973L0.960584 26.6073C0.392129 26.4494 0 25.9336 0 25.3414V20.0779C0 19.4832 0.397393 18.9647 0.96848 18.8094L29.9176 10.9142C30.3203 10.809 30.7387 10.8905 31.0651 11.1379C31.3914 11.3853 31.5809 11.7722 31.5809 12.1827V33.4314C31.5809 33.8419 31.3888 34.2314 31.0624 34.4788C30.8282 34.6551 30.5492 34.7473 30.265 34.7473ZM2.63174 24.3414L28.9491 31.6971V13.9039L2.63174 21.0833V24.3414Z" fill="#11142D"/>
<path d="M30.2651 35.8684C29.5387 35.8684 28.9492 35.2789 28.9492 34.5526V10.8669C28.9492 10.1405 29.5387 9.55103 30.2651 9.55103C30.9914 9.55103 31.581 10.1405 31.581 10.8669V34.5526C31.581 35.2789 30.9914 35.8684 30.2651 35.8684Z" fill="#11142D"/>
<path d="M1.31587 27.9731C0.58951 27.9731 0 27.3836 0 26.6573V18.762C0 18.0357 0.58951 17.4462 1.31587 17.4462C2.04223 17.4462 2.63174 18.0357 2.63174 18.762V26.6573C2.63174 27.3836 2.04223 27.9731 1.31587 27.9731Z" fill="#11142D"/>
<path d="M10.5267 35.9999C7.62385 35.9999 5.26318 33.6393 5.26318 30.7365C5.26318 28.8469 6.26851 27.1152 7.88703 26.2151C8.51865 25.8704 9.32396 26.0914 9.67924 26.7257C10.0319 27.3626 9.80294 28.1626 9.16869 28.5179C8.37127 28.96 7.89492 29.7864 7.89492 30.7365C7.89492 32.1892 9.07394 33.3682 10.5267 33.3682C11.9794 33.3682 13.1584 32.1892 13.1584 30.7365C13.1584 30.2733 13.061 29.8917 12.8558 29.5653C12.4715 28.9495 12.661 28.1363 13.2768 27.7521C13.8874 27.3731 14.7032 27.5573 15.0901 28.1731C15.5533 28.9153 15.7901 29.7811 15.7901 30.7365C15.7901 33.6366 13.4295 35.9999 10.5267 35.9999Z" fill="#11142D"/>
<circle cx="29.755" cy="9.18367" r="8.43367" fill="white" stroke="#5E5CE6" stroke-width="1.5"/>
<path d="M26.4944 13.2652C26.1033 13.2652 25.9077 13.0697 25.9077 12.6785V9.88007C25.9077 8.32951 26.1778 7.1887 26.7179 6.45766C27.2581 5.72196 28.1241 5.35411 29.3162 5.35411H29.5955C30.7922 5.35411 31.6583 5.72196 32.1938 6.45766C32.7339 7.1887 33.004 8.32951 33.004 9.88007V12.6785C33.004 13.0697 32.8084 13.2652 32.4173 13.2652C32.0261 13.2652 31.8306 13.0697 31.8306 12.6785V9.88007C31.8306 9.04192 31.7584 8.3784 31.6141 7.88948C31.4697 7.40057 31.2322 7.05134 30.9016 6.8418C30.5757 6.63227 30.1403 6.5275 29.5955 6.5275H29.3162C28.7714 6.5275 28.336 6.63227 28.0101 6.8418C27.6841 7.05134 27.4466 7.40057 27.2976 7.88948C27.1533 8.3784 27.0811 9.04192 27.0811 9.88007V12.6785C27.0811 13.0697 26.8855 13.2652 26.4944 13.2652ZM29.4558 11.9801C29.1299 11.9801 28.9669 11.8171 28.9669 11.4912V4.85122C28.9669 4.52528 29.1299 4.3623 29.4558 4.3623C29.7818 4.3623 29.9448 4.52528 29.9448 4.85122V11.4912C29.9448 11.8171 29.7818 11.9801 29.4558 11.9801Z" fill="#5E5CE6" stroke="#5E5CE6" stroke-width="0.2"/>
</svg>
