<svg width="23" height="18" viewBox="0 0 23 18" fill="none" xmlns="http://www.w3.org/2000/svg">
<path d="M3.14951 17.5H19.1245C21.0637 17.5 22.024 16.5397 22.024 14.6374V3.36257C22.024 1.46035 21.0637 0.5 19.1245 0.5H3.14951C1.21958 0.5 0.25 1.45111 0.25 3.36257V14.6374C0.25 16.5489 1.21958 17.5 3.14951 17.5ZM15.5879 8.97691C15.1723 8.60755 14.6922 8.41363 14.1935 8.41363C13.6856 8.41363 13.2332 8.58908 12.8084 8.96768L8.63457 12.6983L6.92626 11.1469C6.53843 10.8053 6.11366 10.6206 5.67966 10.6206C5.26412 10.6206 4.87629 10.796 4.48846 11.1377L1.73669 13.6217V3.43645C1.73669 2.4761 2.24457 1.98669 3.16798 1.98669H19.1061C20.0202 1.98669 20.5373 2.4761 20.5373 3.43645V13.6309L15.5879 8.97691ZM7.12941 9.07849C8.32061 9.07849 9.29943 8.09967 9.29943 6.89924C9.29943 5.70804 8.32061 4.71999 7.12941 4.71999C5.92898 4.71999 4.95016 5.70804 4.95016 6.89924C4.95016 8.09967 5.92898 9.07849 7.12941 9.07849Z" fill="#5E5CE6"/>
</svg>
