<svg width="17" height="19" viewBox="0 0 17 19" fill="none" xmlns="http://www.w3.org/2000/svg">
<path d="M16.0405 4.04285C15.9725 3.96512 15.8891 3.90228 15.7956 3.85826C15.7022 3.81423 15.6006 3.78997 15.4974 3.78699C13.893 3.74505 11.8629 2.02955 10.5207 1.35635C9.69164 0.94181 9.14428 0.668477 8.73323 0.596473C8.64977 0.584312 8.56496 0.584547 8.48157 0.597172C8.07052 0.669176 7.52315 0.942509 6.69477 1.35705C5.35257 2.02955 3.32249 3.74505 1.71814 3.78699C1.6148 3.79013 1.51321 3.81445 1.41965 3.85846C1.3261 3.90248 1.24258 3.96523 1.17427 4.04285C1.0327 4.20303 0.959648 4.41238 0.970848 4.62586C1.31549 11.6326 3.82861 15.9688 8.23829 18.489C8.35294 18.554 8.48017 18.5875 8.6067 18.5875C8.73323 18.5875 8.86046 18.554 8.9758 18.489C13.3855 15.9688 15.8979 11.6326 16.2432 4.62586C16.2551 4.41241 16.1822 4.2029 16.0405 4.04285ZM12.534 6.79855L8.81292 12.2897C8.6794 12.4868 8.46968 12.6175 8.26206 12.6175C8.05374 12.6175 7.82235 12.5036 7.67625 12.3575L5.05337 9.73391C4.96773 9.64796 4.91965 9.53157 4.91965 9.41024C4.91965 9.28891 4.96773 9.17253 5.05337 9.08658L5.7014 8.43715C5.78753 8.35186 5.90385 8.30401 6.02506 8.30401C6.14628 8.30401 6.2626 8.35186 6.34873 8.43715L8.05444 10.1429L11.0178 5.76883C11.0863 5.66874 11.1917 5.59984 11.3109 5.57718C11.4301 5.55452 11.5534 5.57994 11.6539 5.64789L12.4124 6.1624C12.5126 6.23086 12.5816 6.33619 12.6044 6.45539C12.6272 6.57458 12.6019 6.69795 12.534 6.79855Z" fill="#23B957"/>
</svg>
