<svg width="31" height="36" viewBox="0 0 31 36" fill="none" xmlns="http://www.w3.org/2000/svg">
  <path d="M29.508 5.82932L15.7267 0.107499C15.3815 -0.0357979 14.9934 -0.0358682 14.6483 0.107499L0.867024 5.82932C0.342141 6.04729 0 6.55973 0 7.12807V14.0837C0 23.6612 5.78876 32.2764 14.6561 35.8957C14.9967 36.0348 15.3783 36.0348 15.7189 35.8957C24.5861 32.2765 30.375 23.6613 30.375 14.0837V7.12807C30.375 6.55973 30.033 6.04729 29.508 5.82932ZM27.5625 14.0837C27.5625 22.2256 22.7813 29.7207 15.1875 33.0663C7.79668 29.8101 2.8125 22.4462 2.8125 14.0837V8.06688L15.1875 2.92886L27.5625 8.06688V14.0837ZM13.6332 18.8238L19.6775 12.7795C20.2267 12.2304 21.117 12.2303 21.6663 12.7795C22.2155 13.3287 22.2154 14.2191 21.6662 14.7682L14.6275 21.8069C14.0783 22.3561 13.1879 22.3559 12.6388 21.8069L8.70877 17.8768C8.15956 17.3276 8.15956 16.4372 8.70877 15.8881C9.25798 15.339 10.1484 15.3389 10.6975 15.8881L13.6332 18.8238Z" fill="#11142D"/>
  <path d="M13.6332 18.8238L19.6775 12.7796C20.2267 12.2304 21.117 12.2303 21.6663 12.7796C22.2155 13.3288 22.2154 14.2191 21.6662 14.7683L14.6276 21.8069C14.0783 22.3562 13.1879 22.356 12.6388 21.8069L8.70878 17.8769C8.15957 17.3277 8.15957 16.4373 8.70878 15.8881C9.25799 15.339 10.1484 15.3389 10.6975 15.8881L13.6332 18.8238Z" fill="#5E5CE6"/>
  </svg>
  