<svg width="20" height="21" viewBox="0 0 20 21" fill="none" xmlns="http://www.w3.org/2000/svg">
  <path fill-rule="evenodd" clip-rule="evenodd" d="M15.8332 9.7513V7.2513C15.8332 4.02964 13.2215 1.41797 9.99984 1.41797C6.77818 1.41797 4.1665 4.02964 4.1665 7.2513V9.7513C4.1665 12.5013 1.6665 13.168 1.6665 14.7513C1.6665 16.168 4.9165 17.2513 9.99984 17.2513C15.0832 17.2513 18.3332 16.168 18.3332 14.7513C18.3332 13.168 15.8332 12.5013 15.8332 9.7513Z" stroke="#11142D" stroke-width="1.5" stroke-linecap="round" stroke-linejoin="round"/>
  <path opacity="0.8" d="M9.99977 18.9181C9.15727 18.9181 8.36561 18.8897 7.62061 18.8347C7.94658 19.8745 8.91005 20.5822 9.99977 20.5822C11.0895 20.5822 12.053 19.8745 12.3789 18.8347C11.6339 18.8897 10.8423 18.9181 9.99977 18.9181Z" fill="#5E5CE6"/>
  </svg>
  