<svg width="20" height="20" viewBox="0 0 20 20" fill="none" xmlns="http://www.w3.org/2000/svg">
<path fill-rule="evenodd" clip-rule="evenodd" d="M0.695312 9.26799C0.695312 4.4946 4.65231 0.625 9.53351 0.625C14.4147 0.625 18.3717 4.4946 18.3717 9.26799C18.3717 14.0414 14.4147 17.911 9.53351 17.911C4.65231 17.911 0.695312 14.0414 0.695312 9.26799ZM17.0104 9.26792C17.0104 5.22975 13.6628 1.95618 9.53348 1.95618C5.40411 1.95618 2.0566 5.22975 2.0566 9.26792C2.0566 13.3061 5.40411 16.5797 9.53348 16.5797C13.6628 16.5797 17.0104 13.3061 17.0104 9.26792Z" fill="#200E32"/>
<path d="M9.53351 0.425C4.54608 0.425 0.495312 4.37996 0.495312 9.26799H0.895313C0.895313 4.60924 4.75853 0.825 9.53351 0.825V0.425ZM18.5717 9.26799C18.5717 4.37996 14.5209 0.425 9.53351 0.425V0.825C14.3085 0.825 18.1717 4.60924 18.1717 9.26799H18.5717ZM9.53351 18.111C14.5209 18.111 18.5717 14.156 18.5717 9.26799H18.1717C18.1717 13.9267 14.3085 17.711 9.53351 17.711V18.111ZM0.495312 9.26799C0.495312 14.156 4.54608 18.111 9.53351 18.111V17.711C4.75853 17.711 0.895313 13.9267 0.895313 9.26799H0.495312ZM9.53348 2.15618C13.5566 2.15618 16.8104 5.3444 16.8104 9.26792H17.2104C17.2104 5.11511 13.7691 1.75618 9.53348 1.75618V2.15618ZM2.2566 9.26792C2.2566 5.3444 5.51034 2.15618 9.53348 2.15618V1.75618C5.29789 1.75618 1.8566 5.11511 1.8566 9.26792H2.2566ZM9.53348 16.3797C5.51034 16.3797 2.2566 13.1914 2.2566 9.26792H1.8566C1.8566 13.4207 5.29789 16.7797 9.53348 16.7797V16.3797ZM16.8104 9.26792C16.8104 13.1914 13.5566 16.3797 9.53348 16.3797V16.7797C13.7691 16.7797 17.2104 13.4207 17.2104 9.26792H16.8104Z" fill="#200E32"/>
<path d="M14.9409 15.1199C15.1823 14.8833 15.5604 14.8613 15.8271 15.0543L15.9035 15.1187L19.1017 18.2381C19.3679 18.4977 19.3685 18.9192 19.103 19.1795C18.8617 19.4161 18.4835 19.438 18.2168 19.245L18.1404 19.1807L14.9422 16.0612C14.676 15.8016 14.6755 15.3802 14.9409 15.1199Z" fill="#200E32" stroke="#11142D" stroke-width="0.8"/>
</svg>
