<svg width="17" height="16" viewBox="0 0 17 16" fill="none" xmlns="http://www.w3.org/2000/svg">
<path fill-rule="evenodd" clip-rule="evenodd" d="M4.58038 15.0311C4.19438 15.2291 3.75638 14.8821 3.83438 14.4381V14.4401L4.66438 9.71006L1.14138 6.35406C0.81238 6.04006 0.98338 5.46606 1.42438 5.40406L6.32238 4.70806L8.50638 0.380058C8.54799 0.292347 8.61362 0.218241 8.69567 0.16635C8.77772 0.11446 8.8728 0.0869141 8.96988 0.0869141C9.06696 0.0869141 9.16204 0.11446 9.24409 0.16635C9.32614 0.218241 9.39178 0.292347 9.43338 0.380058L11.6174 4.70706L16.5154 5.40306C16.9574 5.46506 17.1274 6.03906 16.7974 6.35306L13.2754 9.70906L14.1054 14.4391C14.1834 14.8821 13.7454 15.2291 13.3594 15.0311L8.97038 12.7751L4.58038 15.0311Z" fill="#FFD938"/>
</svg>
