<svg width="17" height="19" viewBox="0 0 17 19" fill="none" xmlns="http://www.w3.org/2000/svg">
<path d="M16.0405 4.04273C15.9725 3.965 15.8891 3.90216 15.7956 3.85814C15.7022 3.81411 15.6006 3.78985 15.4974 3.78687C13.893 3.74493 11.8629 2.02943 10.5207 1.35623C9.69164 0.941688 9.14428 0.668355 8.73323 0.596351C8.64977 0.584189 8.56496 0.584425 8.48157 0.59705C8.07052 0.669054 7.52315 0.942387 6.69477 1.35693C5.35257 2.02943 3.32249 3.74493 1.71814 3.78687C1.6148 3.79 1.51321 3.81433 1.41965 3.85834C1.3261 3.90235 1.24258 3.96511 1.17427 4.04273C1.0327 4.2029 0.959648 4.41226 0.970848 4.62574C1.31549 11.6324 3.82861 15.9687 8.23829 18.4888C8.35294 18.5538 8.48017 18.5874 8.6067 18.5874C8.73323 18.5874 8.86046 18.5538 8.9758 18.4888C13.3855 15.9687 15.8979 11.6324 16.2432 4.62574C16.2551 4.41229 16.1822 4.20278 16.0405 4.04273ZM12.534 6.79843L8.81292 12.2896C8.6794 12.4867 8.46968 12.6174 8.26206 12.6174C8.05374 12.6174 7.82235 12.5035 7.67625 12.3574L5.05337 9.73379C4.96773 9.64783 4.91965 9.53145 4.91965 9.41012C4.91965 9.28879 4.96773 9.17241 5.05337 9.08646L5.7014 8.43703C5.78753 8.35173 5.90385 8.30389 6.02506 8.30389C6.14628 8.30389 6.2626 8.35173 6.34873 8.43703L8.05444 10.1427L11.0178 5.76871C11.0863 5.66862 11.1917 5.59972 11.3109 5.57706C11.4301 5.5544 11.5534 5.57982 11.6539 5.64777L12.4124 6.16228C12.5126 6.23074 12.5816 6.33607 12.6044 6.45526C12.6272 6.57446 12.6019 6.69783 12.534 6.79843Z" fill="#23B957"/>
</svg>
